<?xml version="1.0" encoding="UTF-8"?>
<svg id="Layer_1" data-name="Layer 1" xmlns="http://www.w3.org/2000/svg" xmlns:xlink="http://www.w3.org/1999/xlink" viewBox="0 0 100 100">
  <defs>
    <style>
      .cls-1 {
        fill: #323232;
      }

      .cls-2 {
        fill: url(#linear-gradient);
      }

      .cls-3 {
        fill: #fcee21;
      }

      .cls-4 {
        fill: #32321a;
      }

      .cls-5 {
        opacity: .5;
      }
    </style>
    <linearGradient id="linear-gradient" x1="16.92" y1="50" x2="80.32" y2="50" gradientUnits="userSpaceOnUse">
      <stop offset="0" stop-color="#000" stop-opacity=".5"/>
      <stop offset=".08" stop-color="#2f2c06" stop-opacity=".59"/>
      <stop offset=".16" stop-color="#5e590c" stop-opacity=".69"/>
      <stop offset=".26" stop-color="#888111" stop-opacity=".77"/>
      <stop offset=".35" stop-color="#aca216" stop-opacity=".84"/>
      <stop offset=".46" stop-color="#c9be1a" stop-opacity=".9"/>
      <stop offset=".57" stop-color="#dfd31d" stop-opacity=".94"/>
      <stop offset=".68" stop-color="#efe21f" stop-opacity=".98"/>
      <stop offset=".82" stop-color="#f9eb20" stop-opacity=".99"/>
      <stop offset="1" stop-color="#fcee21"/>
    </linearGradient>
  </defs>
  <g>
    <path class="cls-1" d="M50,99.5C22.71,99.5.5,77.29.5,50S22.71.5,50,.5s49.5,22.21,49.5,49.5-22.21,49.5-49.5,49.5Z"/>
    <path class="cls-4" d="M50,1c27.02,0,49,21.98,49,49s-21.98,49-49,49S1,77.02,1,50,22.98,1,50,1M50,0C22.39,0,0,22.39,0,50s22.39,50,50,50,50-22.39,50-50S77.61,0,50,0h0Z"/>
  </g>
  <g class="cls-5">
    <path class="cls-2" d="M68.03,81.16l-10.47-13.78c-4.26-5.27-6.94-8.69-9.49-12.3h-.24c-2.31,3.61-4.62,6.94-8.88,12.39l-9.86,13.68h-12.17l25.07-31.53-24.1-30.79h12.29l10.83,14.61c3.04,4.07,5.35,7.21,7.55,10.54h.36c2.31-3.7,4.38-6.56,7.42-10.54l11.2-14.61h12.17l-24.95,30.33,25.56,31.99h-12.29Z"/>
  </g>
  <path class="cls-3" d="M82.05,81.16h-10.48l-11.03-14.39c-4.19-5.23-6.84-8.59-9.48-12.35h-.22c-2.43,3.76-4.85,7.03-9.04,12.35l-10.25,14.39h-10.47l24.92-31.57-23.93-30.75h10.47l11.36,15.21c2.98,3.93,5.29,7.03,7.61,10.55h.33c2.43-3.76,4.63-6.62,7.61-10.55l11.58-15.21h10.48l-24.7,30.34,25.25,31.98Z"/>
</svg>